<svg width="27" height="27" viewBox="0 0 27 27" fill="none" xmlns="http://www.w3.org/2000/svg">
<path d="M18.2 7.79999H7.30005V10.2H18.2V7.79999Z" fill="#c1c0cb"/>
<path d="M3 5.8C3 4.2 4.2 3 5.8 3H21.9V7.88246C21.718 7.88091 21.5361 7.90396 21.3595 7.95128C21.1008 8.02061 20.8584 8.14069 20.6464 8.30452C20.4344 8.46835 20.2572 8.67267 20.1248 8.90561L20 9.12184V4.9H5.8C5.3 4.9 4.9 5.3 4.9 5.8V20.3C5.1 20.2 5.5 20.1 5.8 20.1H13.6618L13.0992 21.0744L13.2395 22H5.8C5.3 22 4.9 22.4 4.9 23C4.9 23.5 5.2 23.9 5.8 23.9H13.5273L13.6079 24.432C13.6407 24.6357 13.7185 24.8296 13.8358 24.9993C13.9531 25.1691 14.1068 25.3106 14.2858 25.4133C14.4648 25.516 14.6645 25.5774 14.8702 25.593C15.076 25.6086 15.2826 25.578 15.4751 25.5035L18.6316 24.2749L18.8479 23.9H20V22H19.9439L21.9 18.6088V25.8H5.8C4.2 25.8 3 24.5 3 22.9V5.8Z" fill="#c1c0cb"/>
<path d="M24.9176 9.3154L22.906 8.16041C22.6749 8.02483 22.4192 7.93653 22.1537 7.90063C21.8883 7.86472 21.6183 7.88194 21.3595 7.95128C21.1008 8.02061 20.8584 8.14069 20.6464 8.30452C20.4344 8.46835 20.2572 8.67267 20.1248 8.90561L13.0992 21.0744L13.6079 24.432C13.6407 24.6357 13.7185 24.8296 13.8358 24.9993C13.9531 25.1691 14.1068 25.3106 14.2858 25.4133C14.4648 25.516 14.6645 25.5774 14.8702 25.593C15.076 25.6086 15.2826 25.578 15.4751 25.5035L18.6316 24.2749L25.6608 12.0889C25.9281 11.6222 26 11.0686 25.8608 10.549C25.7216 10.0294 25.3825 9.58598 24.9176 9.3154ZM17.6502 23.1045L15.0396 24.1216L14.6228 21.3502L19.6292 12.6789L22.6505 14.4104L17.6502 23.1045ZM24.4103 11.3734L23.3812 13.1558L20.3483 11.4112L21.3698 9.63079C21.4077 9.56299 21.4589 9.50347 21.5203 9.45576C21.5816 9.40805 21.6519 9.37311 21.727 9.35299C21.802 9.33288 21.8804 9.328 21.9574 9.33864C22.0344 9.34929 22.1084 9.37524 22.1752 9.41497L24.1869 10.57C24.3222 10.6482 24.421 10.777 24.4615 10.928C24.5019 11.0791 24.4808 11.24 24.4027 11.3754L24.4103 11.3734Z" fill="#c1c0cb"/>
</svg>
