<svg width="27" height="27" viewBox="0 0 27 27" fill="none" xmlns="http://www.w3.org/2000/svg">
<path d="M18.2 5.79993H7.30005V8.19993H18.2V5.79993Z" fill="#c1c0cb"/>
<path fill-rule="evenodd" clip-rule="evenodd" d="M3 3.8C3 2.2 4.2 1 5.8 1H21.9V14.2812C21.3119 13.9875 20.673 13.7803 20 13.6764V2.9H5.8C5.3 2.9 4.9 3.3 4.9 3.8V18.3C5.1 18.2 5.5 18.1 5.8 18.1H12.8135C12.6197 18.6999 12.5107 19.338 12.5008 20H5.8C5.3 20 4.9 20.4 4.9 21C4.9 21.5 5.2 21.9 5.8 21.9H12.7525C12.95 22.5868 13.2577 23.2269 13.6551 23.8H5.8C4.2 23.8 3 22.5 3 20.9V3.8Z" fill="#c1c0cb"/>
<path d="M19 15.7666C19.3191 15.7666 19.5778 16.0253 19.5778 16.3444V19.5222H22.7556C23.0747 19.5222 23.3333 19.7809 23.3333 20.1C23.3333 20.4191 23.0747 20.6778 22.7556 20.6778H19.5778V23.8555C19.5778 24.1746 19.3191 24.4333 19 24.4333C18.6809 24.4333 18.4222 24.1746 18.4222 23.8555V20.6778H15.2444C14.9253 20.6778 14.6667 20.4191 14.6667 20.1C14.6667 19.7809 14.9253 19.5222 15.2444 19.5222H18.4222V16.3444C18.4222 16.0253 18.6809 15.7666 19 15.7666Z" fill="#c1c0cb"/>
<path fill-rule="evenodd" clip-rule="evenodd" d="M12.5 20.1C12.5 16.5101 15.4101 13.6 19 13.6C22.5899 13.6 25.5 16.5101 25.5 20.1C25.5 23.6898 22.5899 26.6 19 26.6C15.4101 26.6 12.5 23.6898 12.5 20.1ZM19 25.4C16.0729 25.4 13.7 23.0271 13.7 20.1C13.7 17.1729 16.0729 14.8 19 14.8C21.9271 14.8 24.3 17.1729 24.3 20.1C24.3 23.0271 21.9271 25.4 19 25.4Z" fill="#c1c0cb"/>
</svg>
