<svg width="27" height="27" viewBox="0 0 27 27" fill="none" xmlns="http://www.w3.org/2000/svg">
<path d="M4.6875 23C4.2375 23 3.84375 22.8312 3.50625 22.4937C3.16875 22.1562 3 21.7625 3 21.3125V6.6875C3 6.2375 3.16875 5.84375 3.50625 5.50625C3.84375 5.16875 4.2375 5 4.6875 5H23.8125C24.2625 5 24.6562 5.16875 24.9937 5.50625C25.3312 5.84375 25.5 6.2375 25.5 6.6875V21.3125C25.5 21.7625 25.3312 22.1562 24.9937 22.4937C24.6562 22.8312 24.2625 23 23.8125 23H4.6875ZM4.6875 21.3125H23.8125V9.05H4.6875V21.3125Z" fill="#c1c0cb"/>
<path d="M9.60117 20.0191H11.5106C11.6116 20.0191 11.7015 19.9629 11.7577 19.8843L17.0141 11.2471C17.0815 11.1348 17.0029 11 16.8681 11H15.0598C14.9699 11 14.8913 11.0449 14.8464 11.1235L9.51132 19.8618C9.47762 19.9292 9.52255 20.0191 9.60117 20.0191Z" fill="#c1c0cb"/>
<path d="M16.1829 19.8843L18.6652 15.897C18.7438 15.7735 18.6539 15.6162 18.5079 15.6162H16.7108C16.6434 15.6162 16.5761 15.6499 16.5424 15.7061L13.9928 19.7832C13.9254 19.8843 14.004 20.019 14.1275 20.019H15.9583C16.0482 20.019 16.138 19.9741 16.1829 19.8843Z" fill="#c1c0cb"/>
</svg>
