<svg width="27" height="27" viewBox="0 0 27 27" xmlns="http://www.w3.org/2000/svg">
<path d="M5.8 3C4.2 3 3 4.2 3 5.8V22.9C3 24.5 4.2 25.8 5.8 25.8H21.9V3H5.8ZM5.8 4.9H20V20.1H5.8C5.5 20.1 5.1 20.2 4.9 20.3V5.8C4.9 5.3 5.3 4.9 5.8 4.9ZM5.8 22H20V23.9H5.8C5.2 23.9 4.9 23.5 4.9 23C4.9 22.4 5.3 22 5.8 22Z" fill="#c1c0cb"/>
<path d="M18.2 7.79999H7.30005V10.2H18.2V7.79999Z" fill="#c1c0cb"/>
<circle cx="20.5" cy="20.6" r="5" fill="white"/>
<path d="M18.5412 22.4575L23.14 17.8588L22.3925 17.1275L18.5412 20.9787L16.5913 19.0287L15.86 19.76L18.5412 22.4575ZM19.5 26C18.6117 26 17.7721 25.8294 16.9813 25.4881C16.1904 25.1469 15.4998 24.681 14.9094 24.0906C14.319 23.5002 13.8531 22.8096 13.5119 22.0188C13.1706 21.2279 13 20.3883 13 19.5C13 18.6008 13.1706 17.7558 13.5119 16.965C13.8531 16.1742 14.319 15.4863 14.9094 14.9013C15.4998 14.3163 16.1904 13.8531 16.9813 13.5119C17.7721 13.1706 18.6117 13 19.5 13C20.3992 13 21.2442 13.1706 22.035 13.5119C22.8258 13.8531 23.5138 14.3163 24.0988 14.9013C24.6838 15.4863 25.1469 16.1742 25.4881 16.965C25.8294 17.7558 26 18.6008 26 19.5C26 20.3883 25.8294 21.2279 25.4881 22.0188C25.1469 22.8096 24.6838 23.5002 24.0988 24.0906C23.5138 24.681 22.8258 25.1469 22.035 25.4881C21.2442 25.8294 20.3992 26 19.5 26Z" fill="#15cb15"/>
</svg>
