<svg width="64" height="64" viewBox="0 0 64 64" fill="none" xmlns="http://www.w3.org/2000/svg">
<path d="M0.704257 63.3904H13.9954C14.6991 63.3904 15.3245 62.9994 15.7154 62.4522L52.3052 2.32928C52.7743 1.54745 52.227 0.609253 51.2888 0.609253H38.7013C38.0758 0.609253 37.5286 0.921986 37.2158 1.46927L0.0787912 62.2958C-0.155759 62.7649 0.156975 63.3904 0.704257 63.3904Z" fill="#3EA8FF"/>
<path d="M46.5188 62.4527L63.7972 34.6976C64.3445 33.8376 63.7191 32.743 62.7027 32.743H50.1934C49.7243 32.743 49.2552 32.9776 49.0206 33.3685L31.273 61.749C30.8039 62.4527 31.3512 63.3909 32.2112 63.3909H44.9551C45.5806 63.3909 46.206 63.0781 46.5188 62.4527Z" fill="#3EA8FF"/>
</svg>
